<svg
    width="32"
    height="32"
    viewBox="0 0 40 40"
    fill="none"
    xmlns="http://www.w3.org/2000/svg"
>
    <!-- Background gradient circle -->
    <defs>
        <linearGradient id="logoGradient" x1="0%" y1="0%" x2="100%" y2="100%">
            <stop offset="0%" stop-color="#4f46e5" />
            <stop offset="100%" stop-color="#06b6d4" />
        </linearGradient>
    </defs>
    
    <!-- Main document/paper shape - represents content -->
    <path
        d="M8 8C8 5.23858 10.2386 3 13 3H20L28 11V28C28 30.7614 25.7614 33 23 33H13C10.2386 33 8 30.7614 8 28V8Z"
        fill="#e0e7ff"
        stroke="#6366f1"
        stroke-width="1.5"
        stroke-linecap="round"
        stroke-linejoin="round"
    />

    <!-- Content lines - represents script/text -->
    <path d="M12 14H20" stroke="#818cf8" stroke-width="1.5" stroke-linecap="round" />
    <path d="M12 18H24" stroke="#818cf8" stroke-width="1.5" stroke-linecap="round" />
    <path d="M12 22H18" stroke="#818cf8" stroke-width="1.5" stroke-linecap="round" />

    <!-- Sparkle/star icon - represents optimization/viral content -->
    <circle cx="30" cy="10" r="6" fill="#bfdbfe" />
    <path
        d="M30 6L30.5 8.5L33 9L30.5 9.5L30 12L29.5 9.5L27 9L29.5 8.5L30 6Z"
        fill="#2563eb"
        stroke-linecap="round"
        stroke-linejoin="round"
    />

    <!-- Checkmark badge - represents "proven" -->
    <circle cx="30" cy="30" r="7" fill="white" stroke="#2563eb" stroke-width="2" />
    <path
        d="M26.5 30L28.5 32L33.5 27"
        stroke="#2563eb"
        stroke-width="2"
        stroke-linecap="round"
        stroke-linejoin="round"
    />
</svg>
